<mxfile host="Electron" modified="2023-10-13T12:26:02.060Z" agent="Mozilla/5.0 (Macintosh; Intel Mac OS X 10_15_7) AppleWebKit/537.36 (KHTML, like Gecko) draw.io/22.0.2 Chrome/114.0.5735.289 Electron/25.8.4 Safari/537.36" etag="YHL5iJnQC9k8ncfrm3tA" version="22.0.2" type="device">
  <diagram name="Страница — 1" id="yqDAHqKIFGUmC2xDsrvr">
    <mxGraphModel dx="1080" dy="782" grid="1" gridSize="10" guides="1" tooltips="1" connect="1" arrows="1" fold="1" page="1" pageScale="1" pageWidth="827" pageHeight="1169" math="0" shadow="0">
      <root>
        <mxCell id="0" />
        <mxCell id="1" parent="0" />
        <mxCell id="eo1sWWj_vlMbx-JTrrlT-5" style="edgeStyle=orthogonalEdgeStyle;rounded=0;orthogonalLoop=1;jettySize=auto;html=1;exitX=0.5;exitY=0.5;exitDx=0;exitDy=15;exitPerimeter=0;entryX=0.5;entryY=0;entryDx=0;entryDy=0;endArrow=none;endFill=0;" edge="1" parent="1" source="oy8f3BWYjFhXT9BB5CAe-1" target="eo1sWWj_vlMbx-JTrrlT-4">
          <mxGeometry relative="1" as="geometry" />
        </mxCell>
        <mxCell id="oy8f3BWYjFhXT9BB5CAe-1" value="Начало" style="html=1;dashed=0;whiteSpace=wrap;shape=mxgraph.dfd.start" parent="1" vertex="1">
          <mxGeometry x="360" y="40" width="80" height="30" as="geometry" />
        </mxCell>
        <mxCell id="eo1sWWj_vlMbx-JTrrlT-10" style="edgeStyle=orthogonalEdgeStyle;shape=connector;rounded=0;orthogonalLoop=1;jettySize=auto;html=1;exitX=0.5;exitY=1;exitDx=0;exitDy=0;entryX=0.5;entryY=0;entryDx=0;entryDy=0;labelBackgroundColor=default;strokeColor=default;align=center;verticalAlign=middle;fontFamily=Helvetica;fontSize=11;fontColor=default;endArrow=none;endFill=0;" edge="1" parent="1" source="eo1sWWj_vlMbx-JTrrlT-4" target="eo1sWWj_vlMbx-JTrrlT-9">
          <mxGeometry relative="1" as="geometry" />
        </mxCell>
        <mxCell id="eo1sWWj_vlMbx-JTrrlT-4" value="выводим клавиатуру выбора действия&lt;br&gt;остановить/возобновить" style="rounded=0;whiteSpace=wrap;html=1;" vertex="1" parent="1">
          <mxGeometry x="340" y="100" width="120" height="80" as="geometry" />
        </mxCell>
        <mxCell id="eo1sWWj_vlMbx-JTrrlT-17" style="edgeStyle=orthogonalEdgeStyle;shape=connector;rounded=0;orthogonalLoop=1;jettySize=auto;html=1;exitX=0.5;exitY=1;exitDx=0;exitDy=0;entryX=0.5;entryY=0;entryDx=0;entryDy=0;labelBackgroundColor=default;strokeColor=default;align=center;verticalAlign=middle;fontFamily=Helvetica;fontSize=11;fontColor=default;endArrow=none;endFill=0;" edge="1" parent="1" source="eo1sWWj_vlMbx-JTrrlT-9" target="eo1sWWj_vlMbx-JTrrlT-11">
          <mxGeometry relative="1" as="geometry" />
        </mxCell>
        <mxCell id="eo1sWWj_vlMbx-JTrrlT-27" style="edgeStyle=orthogonalEdgeStyle;shape=connector;rounded=0;orthogonalLoop=1;jettySize=auto;html=1;exitX=1;exitY=0.5;exitDx=0;exitDy=0;entryX=0.5;entryY=0;entryDx=0;entryDy=0;labelBackgroundColor=default;strokeColor=default;align=center;verticalAlign=middle;fontFamily=Helvetica;fontSize=11;fontColor=default;endArrow=none;endFill=0;" edge="1" parent="1" source="eo1sWWj_vlMbx-JTrrlT-9" target="eo1sWWj_vlMbx-JTrrlT-24">
          <mxGeometry relative="1" as="geometry">
            <Array as="points">
              <mxPoint x="520" y="250" />
              <mxPoint x="520" y="820" />
              <mxPoint x="500" y="820" />
            </Array>
          </mxGeometry>
        </mxCell>
        <mxCell id="eo1sWWj_vlMbx-JTrrlT-9" value="выбор пользователя" style="rhombus;whiteSpace=wrap;html=1;fontFamily=Helvetica;fontSize=11;fontColor=default;" vertex="1" parent="1">
          <mxGeometry x="340" y="210" width="120" height="80" as="geometry" />
        </mxCell>
        <mxCell id="eo1sWWj_vlMbx-JTrrlT-18" style="edgeStyle=orthogonalEdgeStyle;shape=connector;rounded=0;orthogonalLoop=1;jettySize=auto;html=1;exitX=0.5;exitY=1;exitDx=0;exitDy=0;entryX=0.5;entryY=0;entryDx=0;entryDy=0;labelBackgroundColor=default;strokeColor=default;align=center;verticalAlign=middle;fontFamily=Helvetica;fontSize=11;fontColor=default;endArrow=none;endFill=0;" edge="1" parent="1" source="eo1sWWj_vlMbx-JTrrlT-11" target="eo1sWWj_vlMbx-JTrrlT-12">
          <mxGeometry relative="1" as="geometry" />
        </mxCell>
        <mxCell id="eo1sWWj_vlMbx-JTrrlT-11" value="Получаем от пользователя действие с задачей" style="shape=parallelogram;perimeter=parallelogramPerimeter;whiteSpace=wrap;html=1;fixedSize=1;fontFamily=Helvetica;fontSize=11;fontColor=default;" vertex="1" parent="1">
          <mxGeometry x="340" y="320" width="120" height="80" as="geometry" />
        </mxCell>
        <mxCell id="eo1sWWj_vlMbx-JTrrlT-19" style="edgeStyle=orthogonalEdgeStyle;shape=connector;rounded=0;orthogonalLoop=1;jettySize=auto;html=1;exitX=0.5;exitY=1;exitDx=0;exitDy=0;entryX=0.5;entryY=0;entryDx=0;entryDy=0;labelBackgroundColor=default;strokeColor=default;align=center;verticalAlign=middle;fontFamily=Helvetica;fontSize=11;fontColor=default;endArrow=none;endFill=0;" edge="1" parent="1" source="eo1sWWj_vlMbx-JTrrlT-12" target="eo1sWWj_vlMbx-JTrrlT-13">
          <mxGeometry relative="1" as="geometry" />
        </mxCell>
        <mxCell id="eo1sWWj_vlMbx-JTrrlT-12" value="Получаем задачи по выбранному действию из бд" style="shape=process;whiteSpace=wrap;html=1;backgroundOutline=1;fontFamily=Helvetica;fontSize=11;fontColor=default;" vertex="1" parent="1">
          <mxGeometry x="340" y="420" width="120" height="80" as="geometry" />
        </mxCell>
        <mxCell id="eo1sWWj_vlMbx-JTrrlT-20" style="edgeStyle=orthogonalEdgeStyle;shape=connector;rounded=0;orthogonalLoop=1;jettySize=auto;html=1;exitX=0.5;exitY=1;exitDx=0;exitDy=0;entryX=0.5;entryY=0;entryDx=0;entryDy=0;labelBackgroundColor=default;strokeColor=default;align=center;verticalAlign=middle;fontFamily=Helvetica;fontSize=11;fontColor=default;endArrow=none;endFill=0;" edge="1" parent="1" source="eo1sWWj_vlMbx-JTrrlT-13" target="eo1sWWj_vlMbx-JTrrlT-15">
          <mxGeometry relative="1" as="geometry" />
        </mxCell>
        <mxCell id="eo1sWWj_vlMbx-JTrrlT-13" value="Формируем кнопки задач полученные из бд" style="shape=process;whiteSpace=wrap;html=1;backgroundOutline=1;fontFamily=Helvetica;fontSize=11;fontColor=default;" vertex="1" parent="1">
          <mxGeometry x="340" y="520" width="120" height="80" as="geometry" />
        </mxCell>
        <mxCell id="eo1sWWj_vlMbx-JTrrlT-21" style="edgeStyle=orthogonalEdgeStyle;shape=connector;rounded=0;orthogonalLoop=1;jettySize=auto;html=1;exitX=0.5;exitY=1;exitDx=0;exitDy=0;entryX=0.5;entryY=0;entryDx=0;entryDy=0;labelBackgroundColor=default;strokeColor=default;align=center;verticalAlign=middle;fontFamily=Helvetica;fontSize=11;fontColor=default;endArrow=none;endFill=0;" edge="1" parent="1" source="eo1sWWj_vlMbx-JTrrlT-15" target="eo1sWWj_vlMbx-JTrrlT-16">
          <mxGeometry relative="1" as="geometry" />
        </mxCell>
        <mxCell id="eo1sWWj_vlMbx-JTrrlT-15" value="Получаем &lt;br&gt;задачу от пользователя" style="shape=parallelogram;perimeter=parallelogramPerimeter;whiteSpace=wrap;html=1;fixedSize=1;fontFamily=Helvetica;fontSize=11;fontColor=default;" vertex="1" parent="1">
          <mxGeometry x="340" y="620" width="120" height="80" as="geometry" />
        </mxCell>
        <mxCell id="eo1sWWj_vlMbx-JTrrlT-25" style="edgeStyle=orthogonalEdgeStyle;shape=connector;rounded=0;orthogonalLoop=1;jettySize=auto;html=1;exitX=0.5;exitY=1;exitDx=0;exitDy=0;entryX=0.5;entryY=0;entryDx=0;entryDy=0;labelBackgroundColor=default;strokeColor=default;align=center;verticalAlign=middle;fontFamily=Helvetica;fontSize=11;fontColor=default;endArrow=none;endFill=0;" edge="1" parent="1" source="eo1sWWj_vlMbx-JTrrlT-16" target="eo1sWWj_vlMbx-JTrrlT-24">
          <mxGeometry relative="1" as="geometry" />
        </mxCell>
        <mxCell id="eo1sWWj_vlMbx-JTrrlT-16" value="редактируем статус задачи в бд" style="shape=process;whiteSpace=wrap;html=1;backgroundOutline=1;fontFamily=Helvetica;fontSize=11;fontColor=default;" vertex="1" parent="1">
          <mxGeometry x="340" y="720" width="120" height="80" as="geometry" />
        </mxCell>
        <mxCell id="eo1sWWj_vlMbx-JTrrlT-22" value="получаем действие с задачей&lt;br&gt;" style="text;html=1;strokeColor=none;fillColor=none;align=center;verticalAlign=middle;whiteSpace=wrap;rounded=0;fontSize=11;fontFamily=Helvetica;fontColor=default;" vertex="1" parent="1">
          <mxGeometry x="320" y="280" width="60" height="30" as="geometry" />
        </mxCell>
        <mxCell id="eo1sWWj_vlMbx-JTrrlT-23" value="конец&lt;br&gt;" style="html=1;dashed=0;whiteSpace=wrap;shape=mxgraph.dfd.start;fontFamily=Helvetica;fontSize=11;fontColor=default;" vertex="1" parent="1">
          <mxGeometry x="460" y="940" width="80" height="30" as="geometry" />
        </mxCell>
        <mxCell id="eo1sWWj_vlMbx-JTrrlT-24" value="TaskMenu" style="swimlane;whiteSpace=wrap;html=1;fontFamily=Helvetica;fontSize=11;fontColor=default;" vertex="1" parent="1">
          <mxGeometry x="440" y="840" width="120" height="80" as="geometry" />
        </mxCell>
        <mxCell id="eo1sWWj_vlMbx-JTrrlT-26" style="edgeStyle=orthogonalEdgeStyle;shape=connector;rounded=0;orthogonalLoop=1;jettySize=auto;html=1;exitX=0.5;exitY=1;exitDx=0;exitDy=0;entryX=0.5;entryY=0.5;entryDx=0;entryDy=-15;entryPerimeter=0;labelBackgroundColor=default;strokeColor=default;align=center;verticalAlign=middle;fontFamily=Helvetica;fontSize=11;fontColor=default;endArrow=none;endFill=0;" edge="1" parent="1" source="eo1sWWj_vlMbx-JTrrlT-24" target="eo1sWWj_vlMbx-JTrrlT-23">
          <mxGeometry relative="1" as="geometry" />
        </mxCell>
        <mxCell id="eo1sWWj_vlMbx-JTrrlT-28" value="&amp;nbsp;назад в меню задачи" style="text;html=1;strokeColor=none;fillColor=none;align=center;verticalAlign=middle;whiteSpace=wrap;rounded=0;fontSize=11;fontFamily=Helvetica;fontColor=default;" vertex="1" parent="1">
          <mxGeometry x="460" y="220" width="80" height="30" as="geometry" />
        </mxCell>
      </root>
    </mxGraphModel>
  </diagram>
</mxfile>
